# xmcd
#
# Track frame offsets: 
#        150
#        12444
#        23284
#        36470
#        49910
#        64441
#        76031
#        90068
#        103188
#        117646
#        129372
#        139406
#        151861
#        163721
#        176446
#        188827
#        202159
#        215664
#        225816
#        238863
#        249774
#        259205
#        270867
#        282706
#        295974
#        305470
#
# Disc length: 4235 seconds
#
# Revision: 3
# Processed by: cddbd v1.5.1PL0 Copyright (c) Steve Scherf et al.
# Submitted via: ExactAudioCopy v0.95a5
#
DISCID=6e10891a
DTITLE=Various Artist - The USA Records Blues Story
DYEAR=2002
DGENRE=Blues
TTITLE0=Lonnie Brooks - Figure Head
TTITLE1=Eddy Clearwater - The Duck Walk
TTITLE2=Willie Mabon - Some Time I Wonder
TTITLE3=Fenton Robinson - From My Heart
TTITLE4=Ricky Allen - Going or Coming
TTITLE5=Jimmy Burns - Forget It
TTITLE6=Detroit Junior - It's Bad To Make a Woman Mad
TTITLE7=Andrew Brown - You Better Stop
TTITLE8=Mighty Joe Young - Hard Times (Follow Me)
TTITLE9=Koko Taylor - Like Heaven To Me
TTITLE10=J. B. Lenoir - I Feel So Good
TTITLE11=A. C. Reed - I'd Rather Fight Than Switch
TTITLE12=Willie Mabon - Just Got Some
TTITLE13=Jesse Fortune - Too Many Cooks
TTITLE14=Homesick James - Crossroads
TTITLE15=Ricky Allen - I Have Made a Change
TTITLE16=Junior Wells - She's a Sweet One
TTITLE17=Jimmy Burns - Through All Your Faults
TTITLE18=Detroit Junior - Call My Job
TTITLE19=Eddy Clearwater - Momee, Momee
TTITLE20=Andrew Brown - Something Can Go Wrong
TTITLE21=Lonnie Brooks - I'm Not Going Home
TTITLE22=Fenton Robinson - Say You're Leavin'
TTITLE23=Homesick James - My Baby's Sweet
TTITLE24=Koko Taylor - Honky Tonky
TTITLE25=Jesse Fortune - Good Things
EXTD=LABEL =GAMC, Inc. - Fuel 2000 Records\nID =3020612092\nUPC =030
EXTD=206-120929\nCOPYRIGHT =2002
EXTT0=
EXTT1=
EXTT2=
EXTT3=
EXTT4=
EXTT5=
EXTT6=
EXTT7=
EXTT8=
EXTT9=
EXTT10=
EXTT11=
EXTT12=
EXTT13=
EXTT14=
EXTT15=
EXTT16=
EXTT17=
EXTT18=
EXTT19=
EXTT20=
EXTT21=
EXTT22=
EXTT23=
EXTT24=
EXTT25=
PLAYORDER=
